<svg width="120" height="116" viewBox="0 0 60 58" fill="none" xmlns="http://www.w3.org/2000/svg">
<rect x="0.265625" width="118" height="116" rx="4" fill="#f4f4f2"/>
<path d="M32.2656 39.75H26.2656C20.8356 39.75 18.5156 37.43 18.5156 32V26C18.5156 20.57 20.8356 18.25 26.2656 18.25H32.2656C37.6956 18.25 40.0156 20.57 40.0156 26V32C40.0156 37.43 37.6956 39.75 32.2656 39.75ZM26.2656 19.75C21.6556 19.75 20.0156 21.39 20.0156 26V32C20.0156 36.61 21.6556 38.25 26.2656 38.25H32.2656C36.8756 38.25 38.5156 36.61 38.5156 32V26C38.5156 21.39 36.8756 19.75 32.2656 19.75H26.2656Z" fill="#94969C"/>
<path d="M26.2656 27.75C24.7456 27.75 23.5156 26.52 23.5156 25C23.5156 23.48 24.7456 22.25 26.2656 22.25C27.7856 22.25 29.0156 23.48 29.0156 25C29.0156 26.52 27.7856 27.75 26.2656 27.75ZM26.2656 23.75C25.5756 23.75 25.0156 24.31 25.0156 25C25.0156 25.69 25.5756 26.25 26.2656 26.25C26.9556 26.25 27.5156 25.69 27.5156 25C27.5156 24.31 26.9556 23.75 26.2656 23.75Z" fill="#94969C"/>
<path d="M19.9364 36.6996C19.6964 36.6996 19.4564 36.5796 19.3164 36.3696C19.0864 36.0296 19.1764 35.5596 19.5264 35.3296L24.4564 32.0196C25.5364 31.2896 27.0264 31.3796 28.0064 32.2096L28.3364 32.4996C28.8364 32.9296 29.6864 32.9296 30.1764 32.4996L34.3364 28.9296C35.3964 28.0196 37.0664 28.0196 38.1364 28.9296L39.7664 30.3296C40.0764 30.5996 40.1164 31.0696 39.8464 31.3896C39.5764 31.6996 39.1064 31.7396 38.7864 31.4696L37.1564 30.0696C36.6564 29.6396 35.8064 29.6396 35.3064 30.0696L31.1464 33.6396C30.0864 34.5496 28.4164 34.5496 27.3464 33.6396L27.0164 33.3496C26.5564 32.9596 25.7964 32.9196 25.2864 33.2696L20.3564 36.5796C20.2264 36.6596 20.0764 36.6996 19.9364 36.6996Z" fill="#94969C"/>
</svg>
